<svg preserveAspectRatio="none" width="100%" height="100%" overflow="visible" style="display: block;" viewBox="0 0 33.4 33.4" fill="none" xmlns="http://www.w3.org/2000/svg">
<g id="SVG" clip-path="url(#clip0_0_10)">
<path id="image 3 (Traced)" d="M16.5978 0.039641C24.6213 0.0374826 28.376 0.0294103 30.2169 0.0801693C31.1383 0.105575 31.5765 0.145666 31.8299 0.207524C32.0799 0.26854 32.1455 0.348494 32.3335 0.468223C32.7008 0.702133 33.0252 1.12345 33.2141 1.61656C33.2401 1.6845 33.2623 1.81269 33.28 2.17959C33.2974 2.54462 33.3103 3.14126 33.3203 4.14175C33.3401 6.14251 33.3479 9.75604 33.3575 16.3561C33.3648 21.3214 33.3637 24.969 33.3539 27.4203C33.3491 28.6461 33.3419 29.5726 33.3326 30.2153C33.328 30.5366 33.3229 30.7869 33.3171 30.9679C33.3113 31.1501 33.3049 31.26 33.2984 31.3024C33.1561 32.2307 32.637 32.9015 31.827 33.2099C31.7433 33.2417 31.645 33.2672 31.3201 33.2869C30.9951 33.3067 30.4465 33.3205 29.4641 33.3303C27.4997 33.3502 23.8035 33.3544 16.6987 33.3599C10.8538 33.3645 7.14727 33.3624 4.8759 33.3497C3.74019 33.3434 2.9635 33.3344 2.45773 33.3224C2.20482 33.3163 2.02 33.3095 1.89204 33.3019C1.82803 33.2981 1.77862 33.2941 1.74226 33.2899C1.7047 33.2856 1.68426 33.2815 1.67581 33.2785C1.01887 33.0422 0.474855 32.5245 0.219545 31.8979L0.1957 31.837L0.0377965 31.4141V1.97946L0.19821 1.54992C0.408844 0.985919 0.972897 0.413481 1.52803 0.19998L1.93456 0.0435608L16.5978 0.039641ZM10.898 2.77318L6.83407 6.84451L2.77022 10.916L2.75914 10.9271V22.4044L2.7666 22.4144L2.98541 22.7098C3.035 22.7767 3.19406 22.9493 3.43166 23.1977C3.67026 23.4472 3.99028 23.7754 4.36416 24.1547C5.11198 24.9134 6.07551 25.8774 7.03391 26.8277C7.99229 27.7781 8.94567 28.7151 9.67348 29.4196C10.0373 29.7718 10.3449 30.0661 10.5686 30.2751C10.6803 30.3794 10.7713 30.4627 10.838 30.5213C10.8713 30.5506 10.8988 30.5739 10.92 30.5908C10.9306 30.5991 10.9399 30.6062 10.9478 30.6117C10.9548 30.6165 10.9633 30.622 10.9716 30.6251C10.9848 30.63 11.0043 30.6337 11.027 30.6368C11.0506 30.6401 11.081 30.6431 11.1178 30.6461C11.1915 30.652 11.2928 30.6574 11.4212 30.6624C11.6781 30.6724 12.0454 30.6807 12.5229 30.6874C13.4781 30.7007 14.8753 30.7073 16.7147 30.7073C19.0387 30.7073 20.4264 30.703 21.2546 30.6873C21.6687 30.6794 21.9437 30.6686 22.1261 30.6541C22.2174 30.6468 22.2862 30.6385 22.3383 30.6289C22.3897 30.6195 22.4271 30.6084 22.4537 30.5942H22.4538C22.465 30.5881 22.4822 30.5745 22.5018 30.5579C22.5227 30.5402 22.5501 30.516 22.5834 30.4857C22.6501 30.425 22.7414 30.3394 22.8544 30.2317C23.0805 30.0164 23.3941 29.7122 23.7724 29.3415C24.5288 28.6002 25.544 27.5926 26.6355 26.4977L30.6041 22.5166L30.6151 22.5056L30.6152 22.49L30.6355 16.8295C30.6424 14.9024 30.6411 13.4716 30.6313 12.5061C30.6263 12.0233 30.6193 11.6566 30.6101 11.4022C30.6055 11.2751 30.6003 11.1756 30.5945 11.1035C30.5916 11.0676 30.5885 11.038 30.5852 11.015C30.583 10.9987 30.5802 10.9837 30.5768 10.9718L30.573 10.9608L30.5669 10.9491C30.5645 10.9453 30.5619 10.9416 30.5595 10.9381C30.5541 10.9305 30.547 10.9214 30.5385 10.911C30.5216 10.8902 30.4982 10.863 30.4688 10.8299C30.41 10.7635 30.3261 10.6723 30.22 10.5593C30.0078 10.3333 29.7062 10.0192 29.3377 9.63995C28.6005 8.88134 27.5948 7.86176 26.4985 6.76412L22.5123 2.77318L22.5012 2.76208H10.909L10.898 2.77318ZM21.4879 24.9256C21.4933 26.1369 21.4946 27.2416 21.4924 28.0456C21.4913 28.4476 21.4893 28.7744 21.4865 29.0016C21.4851 29.1153 21.4834 29.204 21.4817 29.2646C21.4809 29.2912 21.48 29.3121 21.4792 29.3273C21.4641 29.328 21.4435 29.3289 21.4173 29.3294C21.3573 29.3308 21.2695 29.3316 21.157 29.332C20.9319 29.333 20.6084 29.3324 20.2104 29.3303C19.4145 29.3261 18.3209 29.3158 17.1218 29.3005L12.8509 29.2465L17.1603 24.9288L21.4688 20.6117L21.4879 24.9256ZM20.2387 6.33628C20.223 6.37761 20.2039 6.42581 20.1823 6.47717C20.1166 6.63355 18.0194 11.703 15.5222 17.7425C14.2735 20.7623 13.1349 23.5115 12.3063 25.5081C11.892 26.5064 11.5553 27.3167 11.321 27.8784C11.2039 28.1593 11.1125 28.378 11.0497 28.5272C11.0184 28.6017 10.9942 28.6587 10.9776 28.6975C10.975 28.7033 10.9727 28.7088 10.9705 28.7138C10.9613 28.7057 10.9502 28.6959 10.9374 28.6843C10.8916 28.6426 10.8248 28.5797 10.739 28.4978C10.5678 28.334 10.3219 28.0948 10.0198 27.798C9.41541 27.2044 8.58608 26.3809 7.67753 25.4707L4.40019 22.1873L12.3484 14.2244C14.5414 12.0273 16.5373 10.0298 17.9864 8.58167C18.7109 7.85767 19.2988 7.27093 19.7062 6.86523C19.9098 6.66237 20.0683 6.50474 20.1763 6.39789C20.1994 6.37499 20.2203 6.35445 20.2387 6.33628ZM26.5198 15.661C26.5402 15.7057 26.5837 15.8064 26.6461 15.954C26.7242 16.1388 26.831 16.394 26.9568 16.696C27.2081 17.2998 27.535 18.0901 27.859 18.8771C28.183 19.6639 28.5042 20.4474 28.7445 21.0374C28.8646 21.3325 28.9644 21.579 29.0341 21.7535C29.0691 21.8408 29.0964 21.9099 29.115 21.9579C29.1243 21.982 29.1314 22.0006 29.1361 22.0136C29.1364 22.0145 29.1366 22.0154 29.1369 22.0162C29.136 22.0175 29.135 22.0188 29.1338 22.0202C29.1233 22.0323 29.1075 22.0498 29.0864 22.0727C29.0442 22.1183 28.9817 22.184 28.9012 22.2678C28.7401 22.4352 28.507 22.6741 28.2194 22.967C27.644 23.5525 26.8503 24.3533 25.9772 25.2277L22.8669 28.3432V19.2126L24.6868 17.3884C25.2728 16.8009 25.7347 16.3508 26.054 16.0551C26.2138 15.9072 26.3373 15.7986 26.4225 15.7307C26.4653 15.6965 26.4972 15.6738 26.5186 15.6616C26.519 15.6614 26.5195 15.6612 26.5198 15.661ZM21.4878 12.7308L21.507 18.7245L17.3066 22.9331C16.1486 24.0935 15.0927 25.1453 14.3245 25.9051C13.9404 26.285 13.6283 26.592 13.4113 26.8029C13.3164 26.8952 13.2396 26.9689 13.1831 27.0224C13.1914 27.0014 13.2006 26.9782 13.2106 26.9528C13.2652 26.8146 13.3467 26.6117 13.4522 26.3511C13.6632 25.8298 13.9701 25.0778 14.35 24.1508C15.1098 22.2968 16.1616 19.7432 17.3218 16.9377L21.469 6.90997L21.4878 12.7308ZM19.2512 5.35716C19.151 5.45966 19.0021 5.61096 18.8096 5.80586C18.4245 6.19568 17.8652 6.75975 17.1733 7.45599C15.7895 8.84847 13.8755 10.7697 11.7657 12.8836L4.15681 20.5067L4.13761 18.3195C4.12665 17.067 4.12665 15.0372 4.13761 13.8089L4.15732 11.6004L11.7691 8.43838C13.8687 7.56617 15.7817 6.77278 17.1723 6.19717C17.8676 5.90936 18.4324 5.67601 18.8245 5.51447C19.0206 5.4337 19.1736 5.37085 19.2781 5.32817C19.2788 5.32791 19.2794 5.32762 19.2801 5.32736C19.2709 5.33674 19.2613 5.34677 19.2512 5.35716ZM29.275 14.317C29.2862 15.1468 29.2862 16.5123 29.275 17.351L29.2569 18.6927L28.4245 16.679L27.5319 14.5197L28.4155 13.6861L29.2556 12.8935L29.275 14.317ZM22.8942 6.90479C22.914 6.95053 22.9383 7.00692 22.9666 7.07319C23.0496 7.26753 23.1673 7.5463 23.311 7.88887C23.5984 8.57402 23.9898 9.51408 24.416 10.5437L25.9561 14.2645L24.3881 15.8367L22.8669 17.3622V12.0832C22.8669 10.6064 22.8709 9.26795 22.8775 8.30115C22.8807 7.81783 22.8846 7.42742 22.8889 7.1592C22.8905 7.05548 22.8924 6.97014 22.8942 6.90479ZM26.524 8.7148L29.0115 11.206L28.0021 12.2173C27.7174 12.5026 27.4555 12.758 27.2632 12.9395C27.167 13.0304 27.0884 13.1025 27.0332 13.1506C27.0127 13.1684 26.9955 13.1825 26.9822 13.1931C26.9797 13.1873 26.9769 13.1809 26.9738 13.1738C26.9581 13.1379 26.9358 13.0858 26.9077 13.0193C26.8515 12.8864 26.7718 12.6964 26.6746 12.4634C26.5775 12.2304 26.4629 11.9543 26.3366 11.6493L25.9287 10.6616L24.4774 7.14012L24.1436 6.33096L26.524 8.7148ZM15.1938 4.05182C16.2491 4.0525 17.172 4.06012 17.823 4.07216C18.1486 4.07818 18.4059 4.08529 18.5777 4.09316C18.6193 4.09506 18.6557 4.09703 18.6868 4.099C18.6757 4.10376 18.6638 4.10895 18.6512 4.11431C18.5557 4.15492 18.4188 4.21264 18.2464 4.28508C17.9016 4.42997 17.4146 4.6336 16.8327 4.87644C15.6688 5.36213 14.1249 6.00465 12.5773 6.64756C9.80441 7.79958 7.02275 8.95154 6.39167 9.20691C6.41303 9.18321 6.43811 9.15594 6.46667 9.12504C6.58717 8.99486 6.769 8.80379 6.99841 8.56622C7.45716 8.09115 8.10561 7.43053 8.83304 6.69897L11.4672 4.04953L15.1938 4.05182Z" fill="url(#paint0_linear_0_10)" stroke="var(--stroke-0, white)" stroke-width="0.0756625"/>
</g>
<defs>
<linearGradient id="paint0_linear_0_10" x1="32.5452" y1="2.67182e-06" x2="0.793616" y2="33.3417" gradientUnits="userSpaceOnUse">
<stop stop-color="#0081B1"/>
<stop offset="0.141039" stop-color="#0094B1"/>
<stop offset="1" stop-color="#0052A0"/>
</linearGradient>
<clipPath id="clip0_0_10">
<rect width="33.4" height="33.4" fill="white"/>
</clipPath>
</defs>
</svg>
