<svg preserveAspectRatio="none" width="100%" height="100%" overflow="visible" style="display: block;" viewBox="0 0 14 14" fill="none" xmlns="http://www.w3.org/2000/svg">
<g id="Button - Show password &#226;&#134;&#146; SVG">
<path id="Vector" d="M1.20283 7.203C1.15422 7.07203 1.15422 6.92797 1.20283 6.797C1.67633 5.64892 2.48005 4.66727 3.51212 3.97652C4.54418 3.28578 5.75811 2.91703 7 2.91703C8.24189 2.91703 9.45582 3.28578 10.4879 3.97652C11.5199 4.66727 12.3237 5.64892 12.7972 6.797C12.8458 6.92797 12.8458 7.07203 12.7972 7.203C12.3237 8.35108 11.5199 9.33273 10.4879 10.0235C9.45582 10.7142 8.24189 11.083 7 11.083C5.75811 11.083 4.54418 10.7142 3.51212 10.0235C2.48005 9.33273 1.67633 8.35108 1.20283 7.203Z" stroke="var(--stroke-0, #9CA3AF)" stroke-width="1.16667" stroke-linecap="round" stroke-linejoin="round"/>
<path id="Vector_2" d="M7 8.75C7.9665 8.75 8.75 7.9665 8.75 7C8.75 6.0335 7.9665 5.25 7 5.25C6.0335 5.25 5.25 6.0335 5.25 7C5.25 7.9665 6.0335 8.75 7 8.75Z" stroke="var(--stroke-0, #9CA3AF)" stroke-width="1.16667" stroke-linecap="round" stroke-linejoin="round"/>
</g>
</svg>
